<svg width="392" height="78" viewBox="0 0 392 78" fill="none" xmlns="http://www.w3.org/2000/svg">
<path fill-rule="evenodd" clip-rule="evenodd" d="M26.0322 31.7053H32.671C37.9422 31.7053 41.5219 29.8025 42.7866 23.8857C44.1575 17.1194 40.4706 16.6958 35.3066 16.6958H29.1929L26.0322 31.7053ZM19.7062 61.4107H26.4511C32.9871 61.4107 36.6741 59.2983 37.8349 53.6941C39.0997 47.6697 36.5713 45.6604 29.8253 45.6604H23.0804L19.7062 61.4107ZM38.9935 2C53.1157 2 63.4459 7.60422 60.4941 21.7688C58.8104 29.8025 53.6453 35.6174 45.8457 38.3674C53.6453 39.739 57.5423 45.9775 55.4352 55.7034C52.2744 71.03 41.313 76 23.7128 76H0L15.5958 2H38.9935Z" fill="#E20714"/>
<path fill-rule="evenodd" clip-rule="evenodd" d="M94 2L78.4691 76H62L77.4259 2H94Z" fill="#E20714"/>
<path fill-rule="evenodd" clip-rule="evenodd" d="M125.627 2L113.087 60.8849H137L133.704 76H93L108.728 2H125.627Z" fill="#E20714"/>
<mask id="mask0" style="mask-type:alpha" maskUnits="userSpaceOnUse" x="141" y="0" width="63" height="77">
<path fill-rule="evenodd" clip-rule="evenodd" d="M203.945 77H141.727L141.727 0.0615234H203.945V77Z" fill="white"/>
</mask>
<g mask="url(#mask0)">
<path fill-rule="evenodd" clip-rule="evenodd" d="M185.802 38.5332C189.687 20.2468 185.069 15.4921 177.72 15.4921C170.366 15.4921 163.752 20.1438 159.867 38.5332C155.981 56.8162 160.603 61.5709 167.952 61.5709C175.302 61.5709 181.916 56.9226 185.802 38.5332ZM202.605 38.4268C197.353 66.8568 181.286 77.0004 164.594 77.0004C148.107 77.0004 137.923 67.0674 143.069 38.6363C148.317 10.2097 164.382 0.0615234 180.971 0.0615234C197.565 0.0615234 207.748 9.99566 202.605 38.4268Z" fill="#E20714"/>
</g>
<path fill-rule="evenodd" clip-rule="evenodd" d="M231.032 31.7053H237.671C242.942 31.7053 246.522 29.8025 247.787 23.8857C249.158 17.1194 245.471 16.6958 240.307 16.6958H234.193L231.032 31.7053ZM224.705 61.4107H231.451C237.987 61.4107 241.674 59.2983 242.835 53.6941C244.1 47.6697 241.571 45.6604 234.824 45.6604H228.08L224.705 61.4107ZM243.994 2C258.115 2 268.446 7.60422 265.494 21.7688C263.809 29.8025 258.645 35.6174 250.846 38.3674C258.645 39.739 262.541 45.9775 260.435 55.7034C257.274 71.03 246.313 76 228.713 76H205L220.596 2H243.994Z" fill="#E20714"/>
<path fill-rule="evenodd" clip-rule="evenodd" d="M286.883 48.3039H302.268L300.593 19.4424L286.883 48.3039ZM303.002 62.3621H280.397L273.8 76H258L294.734 2H315.455L321 76H303.731L303.002 62.3621Z" fill="#E20714"/>
<mask id="mask1" style="mask-type:alpha" maskUnits="userSpaceOnUse" x="330" y="1" width="62" height="75">
<path fill-rule="evenodd" clip-rule="evenodd" d="M391.168 75.6521V1.40894L330.354 1.40894V75.6521H391.168Z" fill="white"/>
</mask>
<g mask="url(#mask1)">
<path fill-rule="evenodd" clip-rule="evenodd" d="M373.177 1.40894H391.168L358.972 49.6669L353.502 75.6521H336.772L342.245 49.6669L330.354 1.40894H348.874L354.661 31.2123L373.177 1.40894Z" fill="#E20714"/>
</g>
</svg>
