<svg width="45" height="54" viewBox="0 0 45 54" fill="none" xmlns="http://www.w3.org/2000/svg">
<path fill-rule="evenodd" clip-rule="evenodd" d="M19.2041 21.6777H24.1015C27.9902 21.6777 30.6309 20.2883 31.5639 15.9715C32.5752 11.0339 29.8553 10.7248 26.0458 10.7248H21.5358L19.2041 21.6777ZM14.5374 43.3546H19.5131C24.3348 43.3546 27.0547 41.8123 27.911 37.7235C28.844 33.3265 26.9788 31.8603 22.0023 31.8603H17.0265L14.5374 43.3546ZM28.7657 0C39.1837 0 46.8044 4.09039 44.6268 14.4267C43.3848 20.2883 39.5744 24.5325 33.8206 26.5392C39.5744 27.5401 42.4492 32.0917 40.8948 39.1889C38.5631 50.3733 30.4768 54 17.493 54H0L11.5051 0H28.7657Z" fill="#E20714"/>
</svg>
