<svg width="14" height="20" viewBox="0 0 14 20" fill="none" xmlns="http://www.w3.org/2000/svg">
<path fill-rule="evenodd" clip-rule="evenodd" d="M0.239799 5.29319C1.06031 2.17545 3.8314 0.00571057 7 0C10.1686 0.00571057 12.9397 2.17545 13.7602 5.29319C14.5807 8.41092 13.2467 11.7018 10.5059 13.3214V16.4286C10.5059 16.8231 10.192 17.1429 9.80471 17.1429L4.19529 17.1429C3.80804 17.1429 3.49411 16.8231 3.49411 16.4286L3.49411 13.3214C0.753267 11.7018 -0.580716 8.41092 0.239799 5.29319ZM9.10353 12.8929C9.10433 12.6239 9.25339 12.3782 9.48918 12.2571C11.8242 11.0793 13.0556 8.41863 12.4618 5.83417C11.8681 3.24971 9.60558 1.422 7 1.422C4.39442 1.422 2.13189 3.24971 1.53815 5.83417C0.944421 8.41863 2.17583 11.0793 4.51082 12.2571C4.74661 12.3782 4.89567 12.6239 4.89647 12.8929V15.7143H9.10353V12.8929ZM10.1904 7.2C10.4438 7.4979 10.4124 7.94866 10.1202 8.20714L7.72221 10.35L7.72221 13.5714C7.72221 13.9659 7.40829 14.2857 7.02104 14.2857C6.63379 14.2857 6.31986 13.9659 6.31986 13.5714L6.31986 10.3286L3.92183 8.18571C3.73739 7.91623 3.75718 7.55334 3.96977 7.30632C4.18236 7.05929 4.53294 6.99184 4.81934 7.14286L7 9.05714L9.18066 7.14286C9.46935 6.88107 9.91155 6.90663 10.1693 7.2H10.1904ZM9.80471 20C10.192 20 10.5059 19.6802 10.5059 19.2857C10.5059 18.8912 10.192 18.5714 9.80471 18.5714L4.19529 18.5714C3.80804 18.5714 3.49411 18.8912 3.49411 19.2857C3.49411 19.6802 3.80804 20 4.19529 20L9.80471 20Z" fill="#F4F1F1"/>
</svg>
