<svg width="32" height="32" viewBox="0 0 32 32" fill="none" xmlns="http://www.w3.org/2000/svg">
<path d="M8.58753 16.5C9.45047 16.5 10.15 15.8004 10.15 14.9375C10.1552 14.8626 10.1552 14.7874 10.15 14.7125L12.425 13.3125C12.9889 13.7592 13.7861 13.7592 14.35 13.3125L16.45 14.75C16.4436 14.8332 16.4436 14.9168 16.45 15C16.5223 15.8056 17.1974 16.4229 18.0063 16.4229C18.8151 16.4229 19.4903 15.8056 19.5625 15C19.5625 14.7613 19.5068 14.5259 19.4 14.3125L22.0125 11.225C22.274 11.3336 22.5544 11.3888 22.8375 11.3875C23.8162 11.3816 24.6673 10.7154 24.9083 9.76691C25.1493 8.81838 24.7192 7.82679 23.8621 7.35448C23.0049 6.88217 21.937 7.04834 21.2638 7.75874C20.5907 8.46914 20.4823 9.54451 21 10.375L18.4375 13.5C18.0112 13.3889 17.5579 13.4614 17.1875 13.7L14.925 12.25C14.925 12.25 14.925 12.1625 14.925 12.1125C14.9779 11.5232 14.6934 10.9546 14.19 10.6436C13.6867 10.3326 13.0509 10.3326 12.5475 10.6436C12.0442 10.9546 11.7597 11.5232 11.8125 12.1125C11.8125 12.1125 11.8125 12.1875 11.8125 12.225L9.46253 13.675C8.91046 13.284 8.16946 13.2927 7.6267 13.6965C7.08395 14.1004 6.86273 14.8076 7.07864 15.4487C7.29456 16.0899 7.89854 16.5192 8.57503 16.5125L8.58753 16.5Z" fill="#D3CECB"/>
<rect x="7.42499" y="18.75" width="2.3" height="5.1375" fill="#D3CECB"/>
<rect x="16.9" y="18.75" width="2.3" height="5.1375" fill="#D3CECB"/>
<rect x="21.6375" y="14.25" width="2.3" height="9.6125" fill="#D3CECB"/>
<rect x="12.1625" y="16.0875" width="2.3" height="7.7875" fill="#D3CECB"/>
<circle cx="16" cy="16" r="14.8125" stroke="#D3CECB" stroke-width="2"/>
</svg>
