<svg width="13" height="11" viewBox="0 0 13 11" fill="none" xmlns="http://www.w3.org/2000/svg">
<path d="M11.9133 5.20563C12.0783 5.37934 12.1607 5.62258 12.1607 5.84846C12.1607 6.0917 12.0783 6.31758 11.9133 6.49132L7.92216 10.6958C7.57582 11.0607 7.03156 11.0607 6.68522 10.6958C6.33888 10.331 6.33888 9.75762 6.68522 9.39277L9.19207 6.76926L1.67145 6.76926C1.19316 6.76926 0.797363 6.35231 0.797363 5.84846C0.797363 5.3446 1.19319 4.92765 1.67145 4.92765L9.20856 4.92765L6.68522 2.28677C6.33888 1.92193 6.33888 1.3486 6.68522 0.983719C7.03156 0.618871 7.57579 0.618871 7.92216 0.983719L11.9133 5.20563Z" fill="#131313"/>
</svg>
