<svg width="12" height="11" viewBox="0 0 12 11" fill="none" xmlns="http://www.w3.org/2000/svg">
<path d="M0.542713 5.20813C0.377788 5.38193 0.295325 5.62531 0.295325 5.85131C0.295325 6.09468 0.377788 6.32068 0.542713 6.49452L4.53389 10.7013C4.88023 11.0664 5.4245 11.0664 5.77083 10.7013C6.11717 10.3363 6.11717 9.76259 5.77083 9.39755L3.26398 6.77261L10.7846 6.77261C11.2629 6.77261 11.6587 6.35544 11.6587 5.85131C11.6587 5.34718 11.2629 4.93 10.7846 4.93L3.2475 4.93L5.77083 2.28769C6.11717 1.92264 6.11717 1.34901 5.77083 0.983929C5.4245 0.618882 4.88026 0.618882 4.53389 0.983929L0.542713 5.20813Z" fill="#131313"/>
</svg>
