<svg width="28" height="20" viewBox="0 0 28 20" fill="none" xmlns="http://www.w3.org/2000/svg">
<path fill-rule="evenodd" clip-rule="evenodd" d="M24.63 0H3.38C1.51328 0 0 1.51328 0 3.38V16.63C0.00551131 18.4928 1.51718 20 3.38 20H24.63C26.4889 19.9945 27.9945 18.4889 28 16.63V3.38C28 1.51718 26.4928 0.00551131 24.63 0ZM24.41 2L14.35 8.92C14.1296 9.06954 13.8404 9.06954 13.62 8.92L3.63 2H24.41ZM24.63 18C25.3844 17.9946 25.9946 17.3844 26 16.63V3.34L15.48 10.57C14.5754 11.1877 13.3846 11.1877 12.48 10.57L2 3.32V3.38V16.63C2.00549 17.3882 2.62174 18 3.38 18H24.63Z" fill="white"/>
</svg>
