<svg width="25" height="24" viewbox="0 0 25 24" fill="none" xmlns="http://www.w3.org/2000/svg">
    <path fill-rule="evenodd" clip-rule="evenodd" d="M23.6512 2.58667L21.7712 0.70667C20.7793 -0.235557 19.2231 -0.235557 18.2312 0.70667L9.29118 9.64667C9.15302 9.78644 9.05911 9.96383 9.02118 10.1567L8.02118 15.1567C7.95231 15.4861 8.05378 15.8281 8.29118 16.0667C8.4799 16.2539 8.73537 16.3582 9.00118 16.3567H9.20118L14.2012 15.3567C14.394 15.3187 14.5714 15.2248 14.7112 15.0867L23.6512 6.14667C24.625 5.16757 24.625 3.58577 23.6512 2.60667V2.58667ZM13.5112 13.4367L10.2712 14.0867L10.9212 10.8467L17.0012 4.76667L19.5912 7.35667L13.5112 13.4367ZM21.0012 5.94667L22.2312 4.70667C22.3279 4.61594 22.3827 4.48926 22.3827 4.35667C22.3827 4.22408 22.3279 4.0974 22.2312 4.00667L20.3512 2.12667C20.2604 2.02999 20.1338 1.97515 20.0012 1.97515C19.8686 1.97515 19.7419 2.02999 19.6512 2.12667L18.4112 3.35667L21.0012 5.94667Z" fill="white"/>
    <path d="M18.5 24H3.5C1.567 24 0 22.433 0 20.5V5.5C0 3.567 1.567 2 3.5 2H10C10.5523 2 11 2.44772 11 3C11 3.55228 10.5523 4 10 4H3.5C2.67157 4 2 4.67157 2 5.5V20.5C2 21.3284 2.67157 22 3.5 22H18.5C19.3284 22 20 21.3284 20 20.5V14C20 13.4477 20.4477 13 21 13C21.5523 13 22 13.4477 22 14V20.5C22 22.433 20.433 24 18.5 24Z" fill="white"/>
</svg>