<svg width="22" height="24" viewbox="0 0 22 24" fill="none" xmlns="http://www.w3.org/2000/svg">
    <path d="M6.83616 18.24C7.29131 18.2401 7.66207 17.8745 7.66842 17.4194V10.7342C7.66842 10.2746 7.29581 9.90198 6.83616 9.90198C6.37652 9.90198 6.00391 10.2746 6.00391 10.7342V17.4194C6.01026 17.8745 6.38102 18.2401 6.83616 18.24Z" fill="#D3CECB"/>
    <path d="M10.8387 18.24C11.2939 18.2401 11.6646 17.8745 11.671 17.4194V10.7342C11.671 10.2746 11.2984 9.90198 10.8387 9.90198C10.3791 9.90198 10.0065 10.2746 10.0065 10.7342V17.4194C10.0128 17.8745 10.3836 18.2401 10.8387 18.24Z" fill="#D3CECB"/>
    <path d="M14.8413 18.24C15.2964 18.2401 15.6672 17.8745 15.6735 17.4194V10.7342C15.6735 10.2746 15.3009 9.90198 14.8413 9.90198C14.3816 9.90198 14.009 10.2746 14.009 10.7342V17.4194C14.0154 17.8745 14.3861 18.2401 14.8413 18.24Z" fill="#D3CECB"/>
    <path fill-rule="evenodd" clip-rule="evenodd" d="M20.8452 4.02968H15.5187L14.8335 1.73419C14.522 0.710347 13.5811 0.00783573 12.511 0H9.17032C8.10015 0.00783573 7.15929 0.710347 6.84774 1.73419L6.16258 4.02968H0.832258C0.372615 4.02968 0 4.40229 0 4.86194C0 5.32158 0.372615 5.69419 0.832258 5.69419H1.82323V21.7161C1.83172 22.9785 2.85634 23.9979 4.11871 24H17.5858C18.8527 23.9979 19.8792 22.9714 19.8813 21.7045V5.6671H20.8452C21.3048 5.6671 21.6774 5.29448 21.6774 4.83484C21.6765 4.61686 21.5876 4.40848 21.4309 4.25692C21.2743 4.10535 21.0631 4.02342 20.8452 4.02968ZM8.45807 2.21032C8.55509 1.89532 8.84092 1.67628 9.17032 1.66452H12.5342C12.8725 1.66166 13.17 1.88758 13.2581 2.21419L13.7923 4.02968H7.88129L8.45807 2.21032ZM18.1587 21.8865H18.2168V5.6671H3.48387V21.6774C3.48592 22.0285 3.76773 22.3137 4.11871 22.32H17.5626C17.8323 22.314 18.0699 22.1412 18.1587 21.8865Z" fill="#D3CECB"/>
</svg>