<svg width="23" height="27" viewbox="0 0 23 27" fill="none" xmlns="http://www.w3.org/2000/svg">
    <path fill-rule="evenodd" clip-rule="evenodd" d="M1.21053 26.6316H21.7895C22.5158 26.6316 23 26.1474 23 25.4211C23 24.6947 22.5158 24.2105 21.7895 24.2105H2.42105V1.21053C2.42105 0.484211 1.93684 0 1.21053 0C0.484211 0 0 0.484211 0 1.21053V25.4211C0 26.1474 0.484211 26.6316 1.21053 26.6316ZM15.7368 20.5789C15.7368 21.3053 16.2211 21.7895 16.9474 21.7895C17.6737 21.7895 18.1579 21.3053 18.1579 20.5789V15.7368C18.1579 15.0105 17.6737 14.5263 16.9474 14.5263C16.2211 14.5263 15.7368 15.0105 15.7368 15.7368V20.5789ZM12.1053 21.7895C11.3789 21.7895 10.8947 21.3053 10.8947 20.5789V4.84211C10.8947 4.11579 11.3789 3.63158 12.1053 3.63158C12.8316 3.63158 13.3158 4.11579 13.3158 4.84211V20.5789C13.3158 21.3053 12.8316 21.7895 12.1053 21.7895ZM6.05263 20.5789C6.05263 21.3053 6.53684 21.7895 7.26316 21.7895C7.98947 21.7895 8.47368 21.3053 8.47368 20.5789V12.1053C8.47368 11.3789 7.98947 10.8947 7.26316 10.8947C6.53684 10.8947 6.05263 11.3789 6.05263 12.1053V20.5789Z" fill="currentColor"/>
</svg>