<svg width="20" height="26" viewbox="0 0 20 26" fill="none" xmlns="http://www.w3.org/2000/svg">
    <path d="M16.5 7C16.7734 7.00004 16.9962 6.69312 17 6.31105V0.6987C17 0.312819 16.7761 0 16.5 0C16.2239 0 16 0.312819 16 0.6987V6.31105C16.0038 6.69312 16.2266 7.00004 16.5 7Z" fill="#D3CECB"/>
    <path d="M13 3.5C13 3.77344 13.3069 3.99618 13.689 4L19.3013 4C19.6872 4 20 3.77614 20 3.5C20 3.22386 19.6872 3 19.3013 3L13.689 3C13.3069 3.00382 13 3.22656 13 3.5Z" fill="#D3CECB"/>
    <path d="M1.39771 22.3828L0.648075 22.3593C0.641699 22.5622 0.717842 22.759 0.859111 22.9048C1.00038 23.0506 1.19471 23.1328 1.39771 23.1328V22.3828ZM8.41242 15.7955L8.43598 15.0458H8.43598L8.41242 15.7955ZM1.39784 22.3828H2.14784C2.14784 21.9686 1.81206 21.6328 1.39784 21.6328V22.3828ZM1.39784 25H0.647842C0.647842 25.4142 0.983628 25.75 1.39784 25.75V25ZM14.9999 25V25.75C15.4142 25.75 15.7499 25.4142 15.7499 25H14.9999ZM14.9999 22.3828H15.7499C15.7499 22.375 15.7498 22.3671 15.7496 22.3593L14.9999 22.3828ZM8.20169 6.57007C10.3559 6.57007 12.1023 8.31642 12.1023 10.4706H13.6023C13.6023 7.488 11.1843 5.07007 8.20169 5.07007V6.57007ZM4.30111 10.4706C4.30111 8.31642 6.04746 6.57007 8.20169 6.57007V5.07007C5.21903 5.07007 2.80111 7.488 2.80111 10.4706H4.30111ZM8.20169 14.3712C6.04746 14.3712 4.30111 12.6249 4.30111 10.4706H2.80111C2.80111 13.4533 5.21903 15.8712 8.20169 15.8712V14.3712ZM12.1023 10.4706C12.1023 12.6249 10.3559 14.3712 8.20169 14.3712V15.8712C11.1843 15.8712 13.6023 13.4533 13.6023 10.4706H12.1023ZM2.14734 22.4064C2.25236 19.0643 5.04683 16.4401 8.38887 16.5451L8.43598 15.0458C4.26589 14.9148 0.779119 18.1892 0.648075 22.3593L2.14734 22.4064ZM1.39784 21.6328H1.39771V23.1328H1.39784V21.6328ZM2.14784 25V22.3828H0.647842V25H2.14784ZM14.9999 24.25H1.39784V25.75H14.9999V24.25ZM14.2499 22.3828V25H15.7499V22.3828H14.2499ZM8.38886 16.5451C11.5835 16.6455 14.1499 19.2118 14.2503 22.4064L15.7496 22.3593C15.6243 18.3732 12.422 15.1711 8.43598 15.0458L8.38886 16.5451Z" fill="#D3CECB"/>
</svg>