<svg width="19" height="20" viewBox="0 0 19 20" fill="none" xmlns="http://www.w3.org/2000/svg">
<path d="M8.60138 14.1905C8.8117 14.4009 9.10622 14.5061 9.37971 14.5061C9.67423 14.5061 9.94772 14.4009 10.1581 14.1905L15.2489 9.09971C15.6906 8.65796 15.6906 7.96374 15.2489 7.52198C14.8071 7.08023 14.1129 7.08023 13.6711 7.52198L10.4946 10.7195V1.12687C10.4946 0.516802 9.98978 0.0119629 9.37971 0.0119629C8.76965 0.0119629 8.26481 0.516845 8.26481 1.12687V10.7405L5.06725 7.52198C4.62549 7.08023 3.93132 7.08023 3.48952 7.52198C3.04776 7.96374 3.04776 8.65792 3.48952 9.09971L8.60138 14.1905Z" fill="white"/>
<path d="M17.6045 13.307C16.9944 13.307 16.4896 13.8118 16.4896 14.4219V17.7877H2.24788V14.4219C2.24788 13.8118 1.743 13.307 1.13294 13.307C0.522917 13.307 0.0390625 13.7908 0.0390625 14.4009V18.8817C0.0390625 19.4917 0.543945 19.9966 1.15397 19.9966H17.6255C18.2355 19.9966 18.7404 19.4917 18.7404 18.8817V14.4009C18.7194 13.7908 18.2356 13.307 17.6045 13.307Z" fill="white"/>
</svg>
