<svg width="24" height="35" viewBox="0 0 24 35" fill="none" xmlns="http://www.w3.org/2000/svg">
<path fill-rule="evenodd" clip-rule="evenodd" d="M11.9125 0.00478353C11.5003 0.0497815 11.1911 0.400158 11.2 0.812009V3.68076C11.1959 3.9674 11.3475 4.23401 11.5967 4.37851C11.8459 4.52301 12.1541 4.52301 12.4033 4.37851C12.6525 4.23401 12.8041 3.9674 12.8 3.68076V0.812009C12.805 0.583108 12.7103 0.363196 12.5404 0.208594C12.3704 0.0539915 12.1416 -0.0202861 11.9125 0.00478353ZM4.0125 1.731C1.78083 1.731 0 3.61087 0 5.8789V29.1146C0 31.3825 1.78083 33.2749 4.0125 33.2749H9.25C9.53851 33.2789 9.80686 33.1283 9.95231 32.8808C10.0978 32.6332 10.0978 32.327 9.95231 32.0794C9.80686 31.8318 9.53851 31.6812 9.25 31.6853H4.0125C2.6867 31.6853 1.6 30.573 1.6 29.1146V5.8789C1.6 4.42044 2.6867 3.32062 4.0125 3.32062H9.25C9.53851 3.32467 9.80686 3.17407 9.95231 2.92649C10.0978 2.67891 10.0978 2.37271 9.95231 2.12513C9.80686 1.87755 9.53851 1.72695 9.25 1.731H4.0125ZM14.0007 2.1606C14.132 1.90798 14.3891 1.74421 14.675 1.731C14.7 1.72984 14.725 1.72984 14.75 1.731H17.8C18.022 1.72921 18.2348 1.81918 18.3875 1.97938L23.775 7.62996C23.9178 7.77665 23.9984 7.9723 24 8.17639V29.1146C24 31.3825 22.2191 33.2749 19.9875 33.2749H14.75C14.4615 33.2789 14.1931 33.1283 14.0477 32.8808C13.9022 32.6332 13.9022 32.327 14.0477 32.0794C14.1931 31.8318 14.4615 31.6812 14.75 31.6853H19.9875C21.3133 31.6853 22.4 30.573 22.4 29.1146V9.34376H16.7125C16.2707 9.34371 15.9125 8.98789 15.9125 8.54895V5.19586C15.9092 4.98507 15.9903 4.78159 16.138 4.63021C16.2857 4.47882 16.4878 4.39193 16.7 4.38864C16.9165 4.38527 17.1251 4.46924 17.2783 4.62136C17.4314 4.77348 17.5159 4.98076 17.5125 5.19586V7.75415H21.7L17.4625 3.32062H14.75C14.4641 3.33404 14.1928 3.19488 14.0382 2.95558C13.8836 2.71628 13.8693 2.41321 14.0007 2.1606ZM11.9125 7.62996C11.5003 7.67495 11.1911 8.02533 11.2 8.43718V11.3059C11.1959 11.5926 11.3475 11.8592 11.5967 12.0037C11.8459 12.1482 12.1541 12.1482 12.4033 12.0037C12.6525 11.8592 12.8041 11.5926 12.8 11.3059V8.43718C12.805 8.20828 12.7103 7.98837 12.5404 7.83377C12.3704 7.67916 12.1416 7.60489 11.9125 7.62996ZM11.2 16.0624C11.1911 15.6505 11.5003 15.3001 11.9125 15.2551C12.1416 15.2301 12.3704 15.3043 12.5404 15.4589C12.7103 15.6135 12.805 15.8335 12.8 16.0624V18.9311C12.8041 19.2177 12.6525 19.4844 12.4033 19.6289C12.1541 19.7734 11.8459 19.7734 11.5967 19.6289C11.3475 19.4844 11.1959 19.2177 11.2 18.9311V16.0624ZM11.9875 22.8803C11.7753 22.8836 11.5732 22.9705 11.4255 23.1219C11.2778 23.2733 11.1967 23.4767 11.2 23.6875V26.5563C11.1959 26.8429 11.3475 27.1095 11.5967 27.254C11.8459 27.3985 12.1541 27.3985 12.4033 27.254C12.6525 27.1095 12.8041 26.8429 12.8 26.5563V23.6875C12.8034 23.4724 12.7189 23.2651 12.5658 23.113C12.4126 22.9609 12.204 22.8769 11.9875 22.8803ZM11.4255 30.747C11.5732 30.5957 11.7753 30.5088 11.9875 30.5055C12.204 30.5021 12.4126 30.5861 12.5658 30.7382C12.7189 30.8903 12.8034 31.0976 12.8 31.3127V34.1939C12.8041 34.4805 12.6525 34.7471 12.4033 34.8916C12.1541 35.0361 11.8459 35.0361 11.5967 34.8916C11.3475 34.7471 11.1959 34.4805 11.2 34.1939V31.3127C11.1967 31.1019 11.2778 30.8984 11.4255 30.747Z" fill="white"/>
</svg>
