<svg width="24" height="24" viewBox="0 0 24 24" fill="none" xmlns="http://www.w3.org/2000/svg">
<path fill-rule="evenodd" clip-rule="evenodd" d="M16.2962 20C16.1784 22.2286 14.3001 24 12.0001 24C9.70008 24 7.82183 22.2286 7.70401 20H2.94791C1.32005 20 0 18.7074 0 17.1111C0 15.592 1.19762 14.3447 2.71698 14.2307V9.11078C2.71698 4.07774 6.87256 0 12 0C17.1275 0 21.283 4.07873 21.283 9.11078V14.2308C22.8004 14.3449 24 15.5916 24 17.1111C24 18.7057 22.6791 20 21.0521 20H16.2962ZM9.9748 20C10.0875 21.0001 10.9512 21.7778 12.0001 21.7778C13.049 21.7778 13.9127 21 14.0254 20H9.9748ZM19.0189 14.4436C19.0189 15.5508 19.9299 16.4444 21.0557 16.4444C21.4294 16.4444 21.7359 16.7447 21.7358 17.1111C21.7358 17.4775 21.4294 17.7778 21.0521 17.7778H2.94782C2.56929 17.7778 2.26415 17.4789 2.26415 17.1111C2.26415 16.7441 2.56948 16.4444 2.94432 16.4444C4.06828 16.4444 4.98113 15.5479 4.98113 14.4436V9.11069C4.98113 5.30503 8.12283 2.22214 12 2.22214C15.8771 2.22214 19.0189 5.30585 19.0189 9.11069V14.4436Z" fill="white"/>
</svg>
