<svg width="30" height="31" viewBox="0 0 30 31" fill="none" xmlns="http://www.w3.org/2000/svg">
<g id="collab">
<path id="Shape" fill-rule="evenodd" clip-rule="evenodd" d="M28.0058 16.7654C29.5335 18.4763 29.3849 21.1017 27.674 22.6294C29.1157 23.5642 29.9866 25.165 29.9883 26.8834V29.056C29.9883 29.5777 29.5654 30.0006 29.0437 30.0006H20.772C20.2504 30.0006 19.8274 29.5777 19.8274 29.056V26.8834C19.8276 26.3796 19.9029 25.8787 20.051 25.3972L16.8487 23.0734C15.7567 23.9556 14.1969 23.9556 13.1049 23.0734L9.93731 25.3972C10.0854 25.8787 10.1607 26.3796 10.1608 26.8834V29.056C10.1608 29.5777 9.73795 30.0006 9.21628 30.0006H0.944551C0.422949 30.0006 0 29.5777 0 29.056V26.8834C0.000576923 25.164 0.871603 23.5618 2.31429 22.6263C2.1975 22.522 2.08679 22.4113 1.9825 22.2945C0.454808 20.5836 0.603397 17.9582 2.31429 16.4304C4.02526 14.9027 6.65064 15.0513 8.1784 16.7622C9.70609 18.4732 9.5575 21.0986 7.8466 22.6263C8.30019 22.9218 8.7041 23.2874 9.04308 23.7094L12.0973 21.4802C11.7014 19.9595 12.5563 18.393 14.0495 17.9033V14.6254H10.8599C10.3382 14.6254 9.91526 14.2026 9.91526 13.6808V11.5082C9.9159 9.78877 10.7869 8.18653 12.2296 7.25108C12.1128 7.14685 12.0021 7.03608 11.8978 6.91935C10.3701 5.20839 10.5187 2.583 12.2296 1.05525C13.9405 -0.472444 16.566 -0.323854 18.0937 1.38704C19.6213 3.09794 19.4728 5.72339 17.7619 7.25108C19.2037 8.18589 20.0746 9.78672 20.0762 11.505V13.6776C20.0762 14.1993 19.6533 14.6222 19.1316 14.6222H15.9388V17.9032C17.4306 18.3942 18.284 19.9602 17.8878 21.4801L20.9452 23.7126C21.2842 23.2904 21.6881 22.9249 22.1417 22.6294C22.0249 22.5252 21.9142 22.4144 21.8099 22.2976C20.2822 20.5867 20.4308 17.9613 22.1417 16.4336C23.8526 14.9059 26.4781 15.0544 28.0058 16.7654ZM17.2579 4.16531C17.2579 2.91499 16.2444 1.9014 14.994 1.9014C13.7437 1.9014 12.7301 2.91499 12.7301 4.16531C12.7301 5.41563 13.7437 6.42922 14.994 6.42922C16.2444 6.42922 17.2579 5.41563 17.2579 4.16531ZM11.8012 11.505C11.8566 9.74256 13.3303 8.35865 15.0927 8.41403C16.7774 8.46698 18.1308 9.82031 18.1837 11.505V12.733H11.8013V11.505H11.8012ZM7.34577 19.5436C7.34577 18.2933 6.33218 17.2797 5.08186 17.2797C3.83282 17.2797 2.81968 18.2914 2.81795 19.5404V19.5436C2.81795 20.7939 3.83154 21.8075 5.08186 21.8075C6.33218 21.8075 7.34577 20.7939 7.34577 19.5436ZM8.27468 28.1113H1.8891V26.8833C1.94442 25.1208 3.41814 23.737 5.18064 23.7923C6.86526 23.8452 8.21865 25.1986 8.2716 26.8833L8.27468 28.1113ZM13.892 20.7433C13.892 21.352 14.3854 21.8454 14.994 21.8454C15.6019 21.8436 16.0944 21.3512 16.0961 20.7433C16.0961 20.1347 15.6027 19.6413 14.994 19.6413C14.3854 19.6413 13.892 20.1347 13.892 20.7433ZM24.9094 17.2797C26.1597 17.2797 27.1733 18.2933 27.1733 19.5436C27.1733 20.7939 26.1597 21.8075 24.9094 21.8075C23.659 21.8075 22.6454 20.7939 22.6454 19.5436V19.5404C22.6472 18.2926 23.6584 17.2814 24.9063 17.2796H24.9094V17.2797ZM21.7165 28.1113H28.1021L28.099 26.8833C28.0461 25.1986 26.6928 23.8452 25.0081 23.7924C23.2456 23.737 21.7719 25.1208 21.7165 26.8833V28.1113Z" fill="#D3CECB"/>
</g>
</svg>
