<svg width="30" height="30" viewBox="0 0 30 30" fill="none" xmlns="http://www.w3.org/2000/svg">
<g id="dashboard">
<path id="Shape" fill-rule="evenodd" clip-rule="evenodd" d="M29.0397 1.19095e-06C29.5287 -0.00158417 29.9365 0.373599 29.9756 0.861099V9.43464C29.9365 9.92214 29.5287 10.2973 29.0397 10.2957H16.872C16.3829 10.2973 15.9751 9.92214 15.9359 9.43464V0.861099C15.9751 0.373599 16.383 -0.00158417 16.872 1.19095e-06H29.0397ZM13.1281 1.19095e-06C13.645 1.19095e-06 14.0641 0.419087 14.0641 0.935977V16.8476C14.0641 17.3645 13.645 17.7835 13.1281 17.7835H0.96039C0.443438 17.7835 0.0244141 17.3645 0.0244141 16.8476V0.935977C0.0244141 0.419087 0.443438 1.19095e-06 0.96039 1.19095e-06H13.1281ZM29.9756 13.1037C29.9756 12.5868 29.5566 12.1677 29.0397 12.1677H16.872C16.355 12.1677 15.9359 12.5867 15.9359 13.1037V29.0152C15.9359 29.5322 16.355 29.9513 16.872 29.9513H29.0397C29.5566 29.9513 29.9756 29.5322 29.9756 29.0152V13.1037ZM14.0641 20.5166C14.025 20.0291 13.6172 19.654 13.1281 19.6555H0.96039C0.471304 19.654 0.0635604 20.0291 0.0244141 20.5166V29.0901C0.0635604 29.5776 0.471304 29.9527 0.96039 29.9512H13.1281C13.6172 29.9527 14.025 29.5776 14.0641 29.0901V20.5166ZM12.1921 21.3683H1.89637V28.2384H12.1921V21.3683ZM17.808 14.0396H28.1037V28.0793H17.808V14.0396ZM1.89637 1.87195H12.1921V15.9116H1.89637V1.87195ZM17.808 1.71281H28.1037V8.58293H17.808V1.71281Z" fill="#D3CECB"/>
</g>
</svg>
