<svg width="30" height="24" viewBox="0 0 30 24" fill="none" xmlns="http://www.w3.org/2000/svg">
<g id="folder">
<path id="Shape" fill-rule="evenodd" clip-rule="evenodd" d="M1.89233 0.0922852H6.76361C7.19556 0.0922852 7.61399 0.243714 7.94579 0.520255L9.54541 1.85326C9.61181 1.9086 9.69541 1.9389 9.78188 1.9389H24.7904C25.8102 1.9389 26.637 2.76567 26.637 3.78552V7.10943C26.637 7.31334 26.8023 7.47875 27.0063 7.47875H28.4836C29.2892 7.47875 29.9421 8.13183 29.9421 8.93732C29.9421 9.05108 29.9288 9.16447 29.9025 9.27514L26.9748 21.5715C26.7767 22.4033 26.0335 22.9903 25.1783 22.9903H1.89233C0.872482 22.9903 0.0457153 22.1636 0.0457153 21.1437V1.9389C0.0457153 0.919052 0.872482 0.0922852 1.89233 0.0922852ZM27.884 9.78026C27.8907 9.75221 27.8941 9.72356 27.8941 9.69469C27.8941 9.49071 27.7287 9.32537 27.5247 9.32537L6.57511 9.32582C6.24143 9.32582 5.94917 9.54958 5.86211 9.87176L2.9415 20.678C2.93301 20.7094 2.92872 20.7418 2.92872 20.7744C2.92872 20.9784 3.09406 21.1437 3.29805 21.1437H24.8867C25.0577 21.1437 25.2064 21.0263 25.2459 20.86L27.884 9.78026ZM1.89233 2.30822C1.89233 2.10424 2.05767 1.9389 2.26166 1.9389H6.62985C6.71632 1.9389 6.79993 1.9692 6.86632 2.02447L8.46594 3.35747C8.79774 3.63401 9.21609 3.78552 9.64812 3.78552H24.4211C24.625 3.78552 24.7904 3.95086 24.7904 4.15484V7.10943C24.7904 7.31341 24.625 7.47875 24.4211 7.47875H6.07602C5.24166 7.47875 4.51105 8.03815 4.29331 8.84356L2.18203 16.6556C2.16075 16.7344 2.07963 16.7809 2.00083 16.7597C1.93647 16.7423 1.89166 16.6839 1.89166 16.6171L1.89233 2.30822Z" fill="#D3CECB"/>
</g>
</svg>
