<svg width="16" height="16" viewBox="0 0 16 16" fill="none" xmlns="http://www.w3.org/2000/svg">
<path fill-rule="evenodd" clip-rule="evenodd" d="M8.00002 0C3.58186 0 0 3.58189 0 8C0 12.4181 3.58186 16 8.00002 16C12.4182 16 16 12.4181 16 8C16 3.58189 12.4182 0 8.00002 0Z" fill="#202A3C"/>
<path fill-rule="evenodd" clip-rule="evenodd" d="M8 4C8.55229 4 9 4.44771 9 4.99999C9 5.55226 8.55229 6 8 6C7.44771 6 7 5.55226 7 4.99999C7 4.44771 7.44771 4 8 4Z" fill="white"/>
<path fill-rule="evenodd" clip-rule="evenodd" d="M9 7.8387V11.1613C9 11.6245 8.55227 12 8 12C7.44773 12 7 11.6245 7 11.1613V7.8387C7 7.37549 7.44773 7 8 7C8.55227 7 9 7.37549 9 7.8387Z" fill="white"/>
</svg>
