<svg width="10" height="10" viewBox="0 0 10 10" fill="none" xmlns="http://www.w3.org/2000/svg">
<path fill-rule="evenodd" clip-rule="evenodd" d="M9.20658 1.52157L8.10069 0.415688C7.51722 -0.138563 6.60182 -0.138563 6.01834 0.415688L0.759516 5.67451C0.678245 5.75673 0.623004 5.86108 0.600693 5.97451L0.0124574 8.91569C-0.028055 9.10948 0.0316327 9.31065 0.171281 9.45098C0.282292 9.56109 0.432573 9.62247 0.588928 9.62157H0.706575L3.64775 9.03333C3.76119 9.01102 3.86553 8.95578 3.94775 8.87451L9.20658 3.61569C9.77939 3.03975 9.77939 2.10928 9.20658 1.53334V1.52157ZM3.24187 7.90392L1.33599 8.28628L1.71834 6.38039L5.29481 2.80392L6.81834 4.32745L3.24187 7.90392ZM7.64775 3.49804L8.37128 2.76863C8.42815 2.71526 8.46041 2.64074 8.46041 2.56275C8.46041 2.48476 8.42815 2.41024 8.37128 2.35686L7.2654 1.25098C7.21203 1.19411 7.13751 1.16185 7.05952 1.16185C6.98152 1.16185 6.90701 1.19411 6.85363 1.25098L6.12422 1.97451L7.64775 3.49804Z" fill="#202A3C"/>
</svg>
