<svg width="20" height="20" viewBox="0 0 20 20" fill="none" xmlns="http://www.w3.org/2000/svg">
<path fill-rule="evenodd" clip-rule="evenodd" d="M1.66139 2.95251C3.14722 1.08975 5.36478 0.0252838 7.73765 0.0252838C9.82221 0.0252838 11.7737 0.823613 13.2373 2.30939C15.7876 4.88181 16.2533 8.80695 14.324 11.8894L14.2353 12.0225L19.5131 17.3004C19.8014 17.6109 19.9567 17.9879 19.9567 18.4092C19.9567 18.8306 19.7792 19.2298 19.4688 19.5402C18.8922 20.139 17.8499 20.139 17.2733 19.5402L12.0176 14.2401L11.8846 14.3289C10.6427 15.105 9.20126 15.5264 7.73765 15.5264C5.43133 15.5264 3.23589 14.5062 1.75011 12.71C-0.534046 9.93797 -0.57838 5.74668 1.66139 2.95251ZM7.73765 13.3088C9.20126 13.3088 10.5984 12.7321 11.6406 11.6899C12.6829 10.6476 13.2595 9.25052 13.2595 7.78691C13.2595 6.3233 12.6829 4.92619 11.6406 3.88393C10.5984 2.84167 9.22343 2.2651 7.73765 2.2651C6.27403 2.2651 4.87697 2.84167 3.83467 3.88393C2.79241 4.92619 2.21584 6.30109 2.21584 7.78691C2.21584 9.25052 2.79241 10.6476 3.83467 11.6899C4.87697 12.7322 6.25187 13.3088 7.73765 13.3088Z" fill="#D3CECB"/>
</svg>
