<?xml version="1.0" encoding="utf-8"?>
<!-- Generator: Adobe Illustrator 26.0.3, SVG Export Plug-In . SVG Version: 6.00 Build 0)  -->
<svg version="1.1" id="Layer_1" xmlns="http://www.w3.org/2000/svg" xmlns:xlink="http://www.w3.org/1999/xlink" x="0px" y="0px"
	 viewBox="0 0 351 275" style="enable-background:new 0 0 351 275;" xml:space="preserve">
<style type="text/css">
	.st0{fill:#838D9B;}
	.st1{filter:url(#Adobe_OpacityMaskFilter);}
	.st2{fill:#FFFFFF;}
	.st3{mask:url(#mask-2_00000011731669700242014470000003076537853906419118_);fill:#FFFFFF;}
	.st4{fill:#91D4F6;}
	.st5{filter:url(#Adobe_OpacityMaskFilter_00000096025913201352522570000006071504579223890335_);}
	.st6{mask:url(#mask-4_00000091008783427238430630000007680852772100897948_);fill:#E20714;}
</style>
<desc>Created with Sketch.</desc>
<g>
	<g id="Group" transform="translate(121.000000, 0.000000)">
		<g id="Page-1">
			<path id="Fill-1" class="st0" d="M-15.5,114l-0.4,1.2c-0.3,0.9-1.1,1.5-2,1.5h-14.2c-0.9,0-1.7-0.6-2-1.5l-0.4-1.2L-15.5,114
				L-15.5,114z M-4.4,173.1v17.2c0,1.9-1.6,3.5-3.5,3.5H-42c-1.9,0-3.5-1.6-3.5-3.5v-72.9c0-1.9,1.6-3.5,3.5-3.5h4l0.7,2.2
				c0.7,2.3,2.9,4,5.3,4h14.2c2.4,0,4.8-1.6,5.3-4c0.3-1.4,0.8-5.7,0.8-5.7h-1.4h-23.6H-42c-3.8,0-6.9,3.1-6.9,6.9v72.9
				c0,3.8,3.1,6.9,6.9,6.9h34.2c3.8,0,6.9-3.1,6.9-6.9v-15.4C-2.2,174.4-3.3,173.8-4.4,173.1L-4.4,173.1z"/>
			<g id="Group-5" transform="translate(112.000000, 0.000000)">
				<g id="Clip-4">
				</g>
				<defs>
					<filter id="Adobe_OpacityMaskFilter" filterUnits="userSpaceOnUse" x="-117.5" y="29.3" width="179" height="168">
						<feColorMatrix  type="matrix" values="1 0 0 0 0  0 1 0 0 0  0 0 1 0 0  0 0 0 1 0"/>
					</filter>
				</defs>
				
					<mask maskUnits="userSpaceOnUse" x="-117.5" y="29.3" width="179" height="168" id="mask-2_00000011731669700242014470000003076537853906419118_">
					<g class="st1">
						<polygon id="path-1_00000128451899578037343310000010507707678310295731_" class="st2" points="-117.4,197.2 61.6,197.2 
							61.6,29.3 -117.4,29.3 						"/>
					</g>
				</mask>
				<path id="Fill-3" class="st3" d="M-114,148.3V40.1c0-4.1,3.3-7.4,7.4-7.4H50.7c4.1,0,7.4,3.3,7.4,7.4v108.1H-114z M58.1,158.8
					c0,4.1-3.3,7.4-7.4,7.4h-157.3c-4.1,0-7.4-3.3-7.4-7.4v-7h172V158.8z M-11.1,193.8h-33.6l4-24.1h25.6L-11.1,193.8z M50.7,29.3
					h-157.3c-6,0-10.9,4.9-10.9,10.9v108.1v3.5v7c0,6,4.9,10.9,10.9,10.9h62.8l-4,24.1h-18.8c-1,0-1.7,0.8-1.7,1.7
					c0,1,0.8,1.7,1.7,1.7h77.4c1,0,1.7-0.8,1.7-1.7c0-1-0.8-1.7-1.7-1.7H-8l-4-24.1h62.8c6,0,10.9-4.9,10.9-10.9v-7v-3.5V40.1
					C61.6,34.1,56.7,29.3,50.7,29.3L50.7,29.3z"/>
			</g>
			<path id="Fill-6" class="st2" d="M75.2,160.5H93c1,0,1.7-0.8,1.7-1.7S93.9,157,93,157H75.2c-1,0-1.7,0.8-1.7,1.7
				S74.2,160.5,75.2,160.5"/>
		</g>
		<path id="Rectangle-18" class="st4" d="M11.1,42.7h146.8l0,0c1.9,0,3.5,1.6,3.5,3.5v92.2H7.6V46.2l0,0
			C7.6,44.3,9.1,42.7,11.1,42.7z"/>
		<g id="Page-1_1_" transform="translate(277.000000, 79.000000)">
			<g id="Clip-2">
			</g>
			<defs>
				
					<filter id="Adobe_OpacityMaskFilter_00000176757014902325020870000014068561109198938269_" filterUnits="userSpaceOnUse" x="-218.7" y="-19.2" width="51.9" height="62.3">
					<feColorMatrix  type="matrix" values="1 0 0 0 0  0 1 0 0 0  0 0 1 0 0  0 0 0 1 0"/>
				</filter>
			</defs>
			
				<mask maskUnits="userSpaceOnUse" x="-218.7" y="-19.2" width="51.9" height="62.3" id="mask-4_00000091008783427238430630000007680852772100897948_">
				<g style="filter:url(#Adobe_OpacityMaskFilter_00000176757014902325020870000014068561109198938269_);">
					<polygon id="path-3_00000079446976477552199670000008480365065568022437_" class="st2" points="-166.8,43.1 -166.8,-19.2 
						-218.7,-19.2 -218.7,43.1 					"/>
				</g>
			</mask>
			<path id="Fill-1_1_" class="st6" d="M-196.6,5.8h5.6c4.5,0,7.5-1.6,8.6-6.6c1.2-5.7-2-6.1-6.4-6.1h-5.2L-196.6,5.8z M-201.9,30.8
				h5.7c5.6,0,8.7-1.8,9.7-6.5c1.1-5.1-1.1-6.8-6.8-6.8h-5.7L-201.9,30.8z M-185.5-19.2c12,0,20.8,4.7,18.3,16.7
				c-1.4,6.8-5.8,11.7-12.5,14c6.6,1.2,9.9,6.4,8.2,14.6c-2.7,12.9-12,17.1-27,17.1h-20.2l13.3-62.3H-185.5z"/>
		</g>
	</g>
	<g>
		<path class="st2" d="M35.1,223.6h-6.8l-1.5,4.2h-1.3l5.6-14.9h1.2l5.6,14.9h-1.3L35.1,223.6z M28.8,222.5h6l-3-8.1L28.8,222.5z"/>
		<path class="st2" d="M40.8,227.8v-10.1H39v-1h1.8v-1.3c0-1.1,0.3-2,0.9-2.6s1.4-0.9,2.4-0.9c0.5,0,0.9,0.1,1.3,0.2l-0.1,1
			c-0.3-0.1-0.7-0.1-1.1-0.1c-0.7,0-1.2,0.2-1.6,0.6s-0.6,1-0.6,1.8v1.4h2.6v1H42v10.1H40.8z"/>
		<path class="st2" d="M47.7,227.8v-10.1h-1.8v-1h1.8v-1.3c0-1.1,0.3-2,0.9-2.6s1.4-0.9,2.4-0.9c0.5,0,0.9,0.1,1.3,0.2l-0.1,1
			c-0.3-0.1-0.7-0.1-1.1-0.1c-0.7,0-1.2,0.2-1.6,0.6s-0.6,1-0.6,1.8v1.4h2.6v1H49v10.1H47.7z"/>
		<path class="st2" d="M53.7,213.5c0-0.2,0.1-0.4,0.2-0.6c0.2-0.2,0.4-0.2,0.6-0.2s0.5,0.1,0.6,0.2c0.2,0.2,0.2,0.4,0.2,0.6
			c0,0.2-0.1,0.4-0.2,0.6c-0.2,0.2-0.4,0.2-0.6,0.2s-0.5-0.1-0.6-0.2C53.8,213.9,53.7,213.7,53.7,213.5z M55.2,227.8H54v-11.1h1.2
			V227.8z"/>
		<path class="st2" d="M62.6,227c0.9,0,1.6-0.2,2.1-0.7c0.6-0.5,0.9-1.1,0.9-1.9h1.2c0,0.7-0.2,1.3-0.6,1.9c-0.4,0.6-0.9,1-1.6,1.3
			c-0.6,0.3-1.3,0.5-2.1,0.5c-1.5,0-2.6-0.5-3.5-1.5c-0.9-1-1.3-2.4-1.3-4.1V222c0-1.1,0.2-2.1,0.6-2.9c0.4-0.8,0.9-1.5,1.6-1.9
			c0.7-0.5,1.6-0.7,2.5-0.7c1.2,0,2.2,0.4,3,1.1c0.8,0.7,1.2,1.7,1.3,2.9h-1.2c-0.1-0.9-0.4-1.6-0.9-2.1c-0.6-0.5-1.3-0.8-2.2-0.8
			c-1.1,0-2,0.4-2.6,1.2c-0.6,0.8-0.9,1.9-0.9,3.4v0.4c0,1.4,0.3,2.5,0.9,3.3C60.6,226.6,61.5,227,62.6,227z"/>
		<path class="st2" d="M70.6,218.6c0.4-0.7,0.9-1.2,1.5-1.5s1.3-0.5,2.1-0.5c1.2,0,2.1,0.3,2.7,1s0.9,1.7,0.9,3v7.3h-1.2v-7.3
			c0-1-0.2-1.7-0.6-2.2c-0.4-0.5-1.1-0.7-2-0.7c-0.8,0-1.4,0.2-2,0.7c-0.6,0.5-1,1.1-1.3,1.9v7.6h-1.2V212h1.2V218.6z"/>
		<path class="st2" d="M87.9,227.8c-0.1-0.3-0.2-0.9-0.2-1.5c-0.4,0.6-1,1-1.6,1.3c-0.7,0.3-1.4,0.5-2.1,0.5c-1.1,0-1.9-0.3-2.6-0.9
			c-0.7-0.6-1-1.3-1-2.3c0-1.1,0.4-1.9,1.3-2.6c0.9-0.6,2.2-0.9,3.8-0.9h2.2v-1.3c0-0.8-0.2-1.4-0.7-1.9c-0.5-0.5-1.2-0.7-2.1-0.7
			c-0.9,0-1.6,0.2-2.1,0.7s-0.8,1-0.8,1.6l-1.2,0c0-0.9,0.4-1.6,1.2-2.3c0.8-0.6,1.8-1,3-1c1.2,0,2.2,0.3,2.9,0.9
			c0.7,0.6,1.1,1.5,1.1,2.6v5.2c0,1.1,0.1,1.9,0.3,2.4v0.1H87.9z M84,226.9c0.8,0,1.6-0.2,2.2-0.6c0.6-0.4,1.1-0.9,1.4-1.6v-2.4
			h-2.2c-1.2,0-2.2,0.2-2.9,0.7c-0.7,0.4-1,1-1,1.8c0,0.6,0.2,1.1,0.7,1.5C82.7,226.7,83.3,226.9,84,226.9z"/>
		<path class="st2" d="M91.6,222.1c0-1.7,0.4-3.1,1.2-4.1c0.8-1,1.8-1.5,3.1-1.5c1.5,0,2.7,0.6,3.4,1.8l0.1-1.6h1.1v10.9
			c0,1.4-0.4,2.6-1.2,3.4s-1.9,1.3-3.3,1.3c-0.8,0-1.5-0.2-2.2-0.5c-0.7-0.3-1.3-0.8-1.7-1.4l0.7-0.7c0.9,1.1,1.9,1.6,3.1,1.6
			c1,0,1.8-0.3,2.4-0.9c0.6-0.6,0.9-1.4,0.9-2.5v-1.4c-0.8,1.1-1.9,1.6-3.4,1.6c-1.3,0-2.3-0.5-3.1-1.5s-1.2-2.4-1.2-4.2V222.1z
			 M92.9,222.4c0,1.4,0.3,2.5,0.9,3.3c0.6,0.8,1.4,1.2,2.4,1.2c1.5,0,2.6-0.7,3.2-2v-5.2c-0.3-0.7-0.7-1.3-1.2-1.6
			c-0.5-0.4-1.2-0.6-1.9-0.6c-1,0-1.8,0.4-2.4,1.2C93.1,219.6,92.9,220.8,92.9,222.4z"/>
		<path class="st2" d="M108.1,228c-0.9,0-1.8-0.2-2.6-0.7c-0.8-0.5-1.4-1.1-1.8-1.9c-0.4-0.8-0.6-1.8-0.6-2.8v-0.4
			c0-1.1,0.2-2,0.6-2.9s1-1.5,1.7-2c0.7-0.5,1.5-0.7,2.4-0.7c1.3,0,2.4,0.5,3.2,1.4c0.8,0.9,1.2,2.2,1.2,3.8v0.7h-7.9v0.2
			c0,1.3,0.4,2.3,1.1,3.1c0.7,0.8,1.6,1.3,2.7,1.3c0.7,0,1.2-0.1,1.7-0.4c0.5-0.2,1-0.6,1.4-1.1l0.8,0.6
			C111.1,227.3,109.8,228,108.1,228z M107.8,217.5c-0.9,0-1.7,0.3-2.3,1c-0.6,0.7-1,1.6-1.2,2.7h6.7v-0.1c0-1.1-0.3-1.9-0.9-2.6
			S108.8,217.5,107.8,217.5z"/>
		<path class="st2" d="M119,222.1c0-1.1,0.2-2,0.6-2.9s1-1.5,1.8-2c0.8-0.5,1.6-0.7,2.6-0.7c1.5,0,2.7,0.5,3.6,1.6
			c0.9,1,1.4,2.4,1.4,4.1v0.3c0,1.1-0.2,2-0.6,2.9c-0.4,0.9-1,1.5-1.7,2S125,228,124,228c-1.5,0-2.7-0.5-3.6-1.6
			c-0.9-1-1.4-2.4-1.4-4.1V222.1z M120.3,222.4c0,1.3,0.3,2.4,1,3.3c0.7,0.9,1.6,1.3,2.7,1.3c1.1,0,2-0.4,2.7-1.3c0.7-0.9,1-2,1-3.4
			v-0.2c0-0.8-0.2-1.6-0.5-2.3s-0.8-1.2-1.3-1.6c-0.6-0.4-1.2-0.6-1.9-0.6c-1.1,0-2,0.4-2.7,1.3c-0.7,0.9-1,2-1,3.4V222.4z"/>
		<path class="st2" d="M140.4,222.4c0,1.7-0.4,3.1-1.1,4.1c-0.8,1-1.8,1.5-3.1,1.5c-1.5,0-2.7-0.5-3.5-1.6v5.7h-1.2v-15.4h1.1
			l0.1,1.6c0.8-1.2,2-1.8,3.5-1.8c1.3,0,2.4,0.5,3.1,1.5c0.8,1,1.1,2.4,1.1,4.2V222.4z M139.2,222.1c0-1.4-0.3-2.5-0.9-3.4
			s-1.4-1.2-2.4-1.2c-0.8,0-1.4,0.2-1.9,0.5s-1,0.9-1.2,1.6v5.3c0.3,0.6,0.7,1.1,1.3,1.5s1.2,0.5,1.9,0.5c1,0,1.8-0.4,2.4-1.2
			C138.9,224.9,139.2,223.7,139.2,222.1z"/>
		<path class="st2" d="M145,213.9v2.8h2.3v1H145v7.4c0,0.6,0.1,1.1,0.3,1.4c0.2,0.3,0.6,0.5,1.1,0.5c0.2,0,0.5,0,1-0.1l0.1,1
			c-0.3,0.1-0.8,0.2-1.3,0.2c-0.8,0-1.5-0.2-1.8-0.7c-0.4-0.5-0.6-1.2-0.6-2.2v-7.4h-2v-1h2v-2.8H145z"/>
		<path class="st2" d="M149.8,213.5c0-0.2,0.1-0.4,0.2-0.6c0.2-0.2,0.4-0.2,0.6-0.2s0.5,0.1,0.6,0.2c0.2,0.2,0.2,0.4,0.2,0.6
			c0,0.2-0.1,0.4-0.2,0.6c-0.2,0.2-0.4,0.2-0.6,0.2s-0.5-0.1-0.6-0.2C149.9,213.9,149.8,213.7,149.8,213.5z M151.2,227.8H150v-11.1
			h1.2V227.8z"/>
		<path class="st2" d="M155.7,216.7l0,1.8c0.4-0.7,0.9-1.2,1.5-1.5s1.3-0.5,2.1-0.5c1.8,0,2.9,0.7,3.3,2.2c0.4-0.7,0.9-1.2,1.6-1.6
			c0.7-0.4,1.4-0.6,2.2-0.6c2.4,0,3.6,1.3,3.6,3.9v7.4h-1.2v-7.3c0-1-0.2-1.7-0.6-2.2c-0.4-0.5-1.1-0.7-2.1-0.7
			c-0.9,0-1.6,0.3-2.2,0.9c-0.6,0.6-0.9,1.2-1,2v7.3h-1.2v-7.4c0-1-0.2-1.7-0.7-2.1c-0.4-0.5-1.1-0.7-2-0.7c-0.8,0-1.4,0.2-2,0.7
			c-0.6,0.4-1,1.1-1.2,2v7.6h-1.2v-11.1H155.7z"/>
		<path class="st2" d="M180.2,227.8c-0.1-0.3-0.2-0.9-0.2-1.5c-0.4,0.6-1,1-1.6,1.3c-0.7,0.3-1.4,0.5-2.1,0.5
			c-1.1,0-1.9-0.3-2.6-0.9c-0.7-0.6-1-1.3-1-2.3c0-1.1,0.4-1.9,1.3-2.6c0.9-0.6,2.2-0.9,3.8-0.9h2.2v-1.3c0-0.8-0.2-1.4-0.7-1.9
			c-0.5-0.5-1.2-0.7-2.1-0.7c-0.9,0-1.6,0.2-2.1,0.7s-0.8,1-0.8,1.6l-1.2,0c0-0.9,0.4-1.6,1.2-2.3c0.8-0.6,1.8-1,3-1
			c1.2,0,2.2,0.3,2.9,0.9c0.7,0.6,1.1,1.5,1.1,2.6v5.2c0,1.1,0.1,1.9,0.3,2.4v0.1H180.2z M176.3,226.9c0.8,0,1.6-0.2,2.2-0.6
			c0.6-0.4,1.1-0.9,1.4-1.6v-2.4h-2.2c-1.2,0-2.2,0.2-2.9,0.7c-0.7,0.4-1,1-1,1.8c0,0.6,0.2,1.1,0.7,1.5
			C175,226.7,175.6,226.9,176.3,226.9z"/>
		<path class="st2" d="M185.8,227.8h-1.2V212h1.2V227.8z"/>
		<path class="st2" d="M200.9,225c0-0.6-0.2-1.1-0.7-1.5c-0.5-0.4-1.2-0.7-2.2-0.9c-1-0.2-1.7-0.4-2.3-0.7c-0.5-0.3-0.9-0.6-1.2-1
			c-0.3-0.4-0.4-0.9-0.4-1.4c0-0.9,0.4-1.6,1.1-2.2c0.7-0.6,1.7-0.9,2.8-0.9c1.2,0,2.2,0.3,3,0.9c0.7,0.6,1.1,1.4,1.1,2.4h-1.2
			c0-0.6-0.3-1.2-0.8-1.6c-0.5-0.4-1.2-0.6-2.1-0.6c-0.8,0-1.5,0.2-1.9,0.5c-0.5,0.4-0.7,0.8-0.7,1.4c0,0.6,0.2,1,0.6,1.3
			c0.4,0.3,1.1,0.6,2.2,0.8c1.1,0.3,1.9,0.5,2.4,0.8c0.5,0.3,0.9,0.6,1.2,1s0.4,0.9,0.4,1.5c0,0.9-0.4,1.7-1.1,2.2
			c-0.8,0.6-1.7,0.8-3,0.8c-1.3,0-2.3-0.3-3.1-0.9c-0.8-0.6-1.2-1.4-1.2-2.4h1.2c0,0.7,0.4,1.3,0.9,1.7c0.6,0.4,1.3,0.6,2.2,0.6
			c0.9,0,1.5-0.2,2.1-0.6C200.6,226,200.9,225.6,200.9,225z"/>
		<path class="st2" d="M212,226.4c-0.7,1.1-1.9,1.6-3.5,1.6c-1.2,0-2.1-0.3-2.7-1c-0.6-0.7-0.9-1.7-0.9-3.1v-7.2h1.2v7.1
			c0,2.1,0.9,3.2,2.6,3.2c1.8,0,2.9-0.7,3.4-2.2v-8h1.2v11.1H212L212,226.4z"/>
		<path class="st2" d="M221.5,217.7c-0.3,0-0.5-0.1-0.8-0.1c-0.8,0-1.4,0.2-1.9,0.6c-0.5,0.4-0.9,1-1.1,1.9v7.6h-1.2v-11.1h1.2
			l0,1.8c0.6-1.3,1.7-2,3.1-2c0.3,0,0.6,0,0.8,0.1L221.5,217.7z"/>
		<path class="st2" d="M227.8,222.1c0-1.1,0.2-2.1,0.6-2.9c0.4-0.9,1-1.5,1.8-2c0.8-0.5,1.7-0.7,2.7-0.7c1.5,0,2.7,0.5,3.6,1.4
			c0.9,1,1.4,2.2,1.5,3.8l0,0.6c0,1.1-0.2,2.1-0.6,2.9c-0.4,0.9-1,1.5-1.8,2c-0.8,0.5-1.7,0.7-2.7,0.7c-1.6,0-2.8-0.5-3.8-1.6
			c-0.9-1-1.4-2.4-1.4-4.2V222.1z M230.3,222.4c0,1.1,0.2,2,0.7,2.7c0.5,0.6,1.1,1,2,1c0.8,0,1.5-0.3,2-1c0.5-0.7,0.7-1.6,0.7-2.9
			c0-1.1-0.2-2-0.7-2.7c-0.5-0.7-1.1-1-2-1c-0.8,0-1.5,0.3-1.9,1C230.5,220.1,230.3,221.1,230.3,222.4z"/>
		<path class="st2" d="M246,219c-0.3-0.1-0.7-0.1-1-0.1c-1.1,0-1.9,0.4-2.3,1.3v7.6h-2.5v-11.1h2.4l0.1,1.2c0.6-1,1.4-1.4,2.5-1.4
			c0.4,0,0.6,0,0.9,0.1L246,219z"/>
		<path class="st2" d="M246.9,222.2c0-1.7,0.4-3.1,1.2-4.1c0.8-1,1.9-1.6,3.2-1.6c1.2,0,2.1,0.4,2.9,1.2V212h2.5v15.8h-2.3l-0.1-1.1
			c-0.7,0.9-1.7,1.4-3,1.4c-1.3,0-2.3-0.5-3.2-1.6C247.3,225.4,246.9,224,246.9,222.2z M249.4,222.4c0,1.1,0.2,2,0.7,2.6
			c0.4,0.6,1.1,0.9,1.9,0.9c1,0,1.8-0.5,2.2-1.4v-4.7c-0.5-0.9-1.2-1.3-2.2-1.3c-0.8,0-1.4,0.3-1.9,1
			C249.6,220.1,249.4,221.1,249.4,222.4z"/>
		<path class="st2" d="M259.3,213.8c0-0.4,0.1-0.7,0.4-1c0.2-0.3,0.6-0.4,1-0.4s0.8,0.1,1,0.4s0.4,0.6,0.4,1c0,0.4-0.1,0.7-0.4,0.9
			c-0.2,0.2-0.6,0.4-1,0.4s-0.8-0.1-1-0.4C259.4,214.5,259.3,214.2,259.3,213.8z M261.9,227.8h-2.5v-11.1h2.5V227.8z"/>
		<path class="st2" d="M266.9,216.7l0.1,1.3c0.8-1,1.9-1.5,3.2-1.5c2.3,0,3.5,1.3,3.5,4v7.3h-2.5v-7.2c0-0.7-0.2-1.2-0.5-1.6
			c-0.3-0.3-0.8-0.5-1.5-0.5c-1,0-1.8,0.5-2.2,1.4v7.9h-2.5v-11.1H266.9z"/>
		<path class="st2" d="M282.9,227.8c-0.1-0.2-0.2-0.6-0.3-1c-0.8,0.8-1.8,1.2-2.9,1.2c-1.1,0-2-0.3-2.7-1c-0.7-0.6-1.1-1.4-1.1-2.4
			c0-1.2,0.4-2.1,1.3-2.7c0.9-0.6,2.1-0.9,3.8-0.9h1.5v-0.7c0-0.6-0.2-1-0.5-1.4c-0.3-0.3-0.8-0.5-1.5-0.5c-0.6,0-1,0.1-1.4,0.4
			c-0.4,0.3-0.5,0.6-0.5,1.1h-2.5c0-0.6,0.2-1.2,0.6-1.7c0.4-0.5,1-0.9,1.6-1.2c0.7-0.3,1.5-0.5,2.3-0.5c1.3,0,2.3,0.3,3.1,1
			c0.8,0.7,1.2,1.6,1.2,2.8v5c0,1,0.1,1.8,0.4,2.4v0.2H282.9z M280.2,226c0.5,0,1-0.1,1.4-0.4c0.4-0.2,0.8-0.6,1-1v-2.1h-1.3
			c-0.9,0-1.6,0.2-2.1,0.5s-0.7,0.8-0.7,1.4c0,0.5,0.2,0.9,0.5,1.1C279.2,225.9,279.7,226,280.2,226z"/>
		<path class="st2" d="M290.8,214v2.7h2v1.8h-2v6.2c0,0.4,0.1,0.7,0.3,0.9c0.2,0.2,0.5,0.3,0.9,0.3c0.3,0,0.6,0,0.9-0.1v1.9
			c-0.6,0.2-1.1,0.2-1.6,0.2c-1.9,0-2.9-1.1-2.9-3.2v-6.3h-1.8v-1.8h1.8V214H290.8z"/>
		<path class="st2" d="M299.5,228c-1.6,0-2.9-0.5-3.8-1.5c-1-1-1.5-2.3-1.5-4v-0.3c0-1.1,0.2-2.1,0.6-3c0.4-0.9,1-1.5,1.8-2
			c0.8-0.5,1.6-0.7,2.6-0.7c1.5,0,2.7,0.5,3.5,1.4c0.8,1,1.2,2.3,1.2,4.1v1h-7.2c0.1,0.9,0.4,1.6,0.9,2.2c0.5,0.5,1.2,0.8,2,0.8
			c1.1,0,2.1-0.5,2.8-1.4l1.3,1.3c-0.4,0.7-1,1.2-1.8,1.5C301.3,227.8,300.4,228,299.5,228z M299.2,218.5c-0.7,0-1.2,0.2-1.7,0.7
			c-0.4,0.5-0.7,1.1-0.8,2h4.7V221c-0.1-0.8-0.3-1.5-0.7-1.9C300.5,218.7,299.9,218.5,299.2,218.5z"/>
		<path class="st2" d="M312.6,226.7c-0.7,0.9-1.8,1.3-3.1,1.3c-1.2,0-2.1-0.4-2.7-1.1c-0.6-0.7-0.9-1.7-0.9-3.1v-7.2h2.5v7.2
			c0,1.4,0.6,2.1,1.8,2.1c1.2,0,2-0.4,2.5-1.3v-8h2.5v11.1h-2.3L312.6,226.7z"/>
		<path class="st2" d="M323.4,219c-0.3-0.1-0.7-0.1-1-0.1c-1.1,0-1.9,0.4-2.3,1.3v7.6h-2.5v-11.1h2.4l0.1,1.2c0.6-1,1.4-1.4,2.5-1.4
			c0.4,0,0.6,0,0.9,0.1L323.4,219z"/>
	</g>
</g>
</svg>
